<svg xmlns="http://www.w3.org/2000/svg" fill="none" viewBox="0 0 51.42 51.6">   <g clip-path="url(#a)" fill="#ff820a">     <path d="M32.353 1.359 27.282 0l-4.274 15.949L19.15 1.55l-5.071 1.359 4.168 15.557L7.865 8.083l-3.713 3.713 11.39 11.387-14.183-3.8L0 24.455l15.497 4.152a10.5 10.5 0 1 1 20.461-.014l14.082 3.773 1.359-5.071-15.557-4.168 14.183-3.8-1.359-5.072-15.557 4.17L43.492 8.042l-3.713-3.713-11.23 11.231z"/>     <path d="M35.943 28.65a10.44 10.44 0 0 1-2.612 4.813l10.203 10.203 3.713-3.713zm-2.715 4.92a10.5 10.5 0 0 1-4.692 2.773l3.713 13.855 5.071-1.359zm-4.881 2.824a10.6 10.6 0 0 1-2.621.33 10.6 10.6 0 0 1-2.802-.378l-3.715 13.868 5.069 1.36 4.067-15.179Zm-5.602-.099a10.5 10.5 0 0 1-4.608-2.815L7.908 43.709l3.713 3.713zm-4.694-2.905a10.44 10.44 0 0 1-2.548-4.753L1.374 32.423l1.359 5.071z"/>   </g> </svg>